<?xml version="1.0" encoding="iso-8859-1"?>
<!-- Generator: Adobe Illustrator 25.2.0, SVG Export Plug-In . SVG Version: 6.00 Build 0)  -->
<svg version="1.1" id="_x35_" xmlns="http://www.w3.org/2000/svg" xmlns:xlink="http://www.w3.org/1999/xlink" x="0px" y="0px"
	 viewBox="0 0 45 45" style="enable-background:new 0 0 45 45;" xml:space="preserve">
<g>
	<path style="fill-rule:evenodd;clip-rule:evenodd;fill:#6F7277;" d="M12.662,6.666h7.953h0.567l-0.434,0.423l-7.942,9.488
		l-0.423-0.145V6.955V6.666H12.662z M10.571,38.334c8.509,0,15.361,0,23.87,0V25.086h3.904L22.428,7.234L6.655,25.086h3.916V38.334z
		 M25.787,22.572h3.904c0.701,0,1.257,0.556,1.257,1.112v9.622c0,0.689-0.556,1.257-1.257,1.257h-3.904
		c-0.701,0-1.257-0.567-1.257-1.257v-9.622C24.53,23.129,25.086,22.572,25.787,22.572L25.787,22.572z M16.143,22.572h3.359
		c0.556,0,0.979,0.412,0.979,0.978v3.904c0,0.545-0.423,0.968-0.979,0.968h-3.359c-0.412,0-0.968-0.423-0.968-0.968v-3.904
		C15.175,22.984,15.732,22.572,16.143,22.572L16.143,22.572z"/>
</g>
</svg>
