<svg id="_5" data-name="5" xmlns="http://www.w3.org/2000/svg" viewBox="0 0 118.17 118.17"><defs><style>.cls-1{fill:#63b9cf;stroke:#63b9cf;stroke-miterlimit:10;}</style></defs><path class="cls-1" d="M81.65,22.1A2.53,2.53,0,0,1,83.33,25c-.31,3.18-.55,6.38-.84,9.57A2.24,2.24,0,0,1,78,34.33c0-.77.13-1.54.19-2.31,0-.48.07-1,.11-1.62l-.74.61a158.1,158.1,0,0,1-42.29,26.1c-1.47.61-3,1.11-4.48,1.62a2.25,2.25,0,1,1-1.42-4.24,115.63,115.63,0,0,0,21-9.81A156.64,156.64,0,0,0,73.05,29c.81-.68,1.59-1.39,2.38-2.09,0,0,0-.08,0-.12H71.21a2.24,2.24,0,1,1-.07-4.48c1.91-.06,3.83-.08,5.75-.12.28,0,.55-.06.83-.09Z"/><path class="cls-1" d="M39.13,73.36c0-1.41,0-2.72,0-4a2.27,2.27,0,0,1,2.55-2.55c2.79,0,5.57,0,8.35,0h.91v-1.6c0-1.56,0-3.13,0-4.7a2.19,2.19,0,0,1,2.34-2.32h9.46V54c0-1.92.82-2.75,2.72-2.75h9.1v-.79c0-1.26,0-2.52,0-3.79a2.24,2.24,0,0,1,2.35-2.34c3.86,0,7.72,0,11.58,0a2.24,2.24,0,0,1,2.38,2.31c0,.17,0,.33,0,.5q0,23.09,0,46.17a4.36,4.36,0,0,1-.13,1.25,2.23,2.23,0,0,1-2.33,1.53H30.09c-2,0-2.79-.8-2.79-2.81v-17c0-2.08.77-2.85,2.82-2.86h9Zm40-24.53v42.7h7.22V48.83ZM67.25,91.52H74.5V55.77H67.25ZM55.48,62.68V91.54H62.7V62.68ZM43.67,71.32V91.53H50.9V71.32ZM39.09,77.9H31.84V91.55h7.25Z"/></svg>