<svg id="_5" data-name="5" xmlns="http://www.w3.org/2000/svg" viewBox="0 0 118.17 118.17"><defs><style>.cls-1{fill:#63b9cf;stroke:#63b9cf;stroke-miterlimit:10;stroke-width:3px;}</style></defs><path class="cls-1" d="M91.3,92.63H26.87a.92.92,0,0,1-.92-.92V59.37a.92.92,0,0,1,1.84,0V90.79H90.38V59.37a.92.92,0,0,1,1.84,0V91.71A.92.92,0,0,1,91.3,92.63Z"/><path class="cls-1" d="M91.3,93H26.87a1.26,1.26,0,0,1-1.26-1.26V59.37a1.27,1.27,0,1,1,2.53,0V90.44H90V59.37a1.27,1.27,0,1,1,2.53,0V91.71A1.27,1.27,0,0,1,91.3,93ZM26.87,58.79a.57.57,0,0,0-.57.58V91.71a.57.57,0,0,0,.57.57H91.3a.58.58,0,0,0,.58-.57V59.37a.58.58,0,1,0-1.15,0V90.79a.35.35,0,0,1-.35.34H27.79a.34.34,0,0,1-.34-.34V59.37A.58.58,0,0,0,26.87,58.79Z"/><path class="cls-1" d="M59.09,78.39a.92.92,0,0,1-.92-.91V27.82a.92.92,0,0,1,1.84,0V77.48A.92.92,0,0,1,59.09,78.39Z"/><path class="cls-1" d="M59.09,78.74a1.27,1.27,0,0,1-1.27-1.27V27.81a1.27,1.27,0,0,1,2.53,0V77.47A1.27,1.27,0,0,1,59.09,78.74Zm0-51.5a.58.58,0,0,0-.58.57V77.47a.58.58,0,1,0,1.15,0V27.81A.58.58,0,0,0,59.09,27.24Z"/><path class="cls-1" d="M70.12,42a.92.92,0,0,1-.75-.39L59.09,28,48,41.33a.92.92,0,0,1-1.5-1.06L58.34,25.88a1,1,0,0,1,1.5,0l11,14.62a.93.93,0,0,1-.21,1.29A1,1,0,0,1,70.12,42Z"/><path class="cls-1" d="M47.23,42.06A1.27,1.27,0,0,1,46,41a1.3,1.3,0,0,1,.22-.94L58.06,25.68a1.35,1.35,0,0,1,2.06,0l11,14.62a1.28,1.28,0,0,1-.3,1.77,1.29,1.29,0,0,1-1.76-.3l-10-13.18L48.26,41.53a1.25,1.25,0,0,1-.82.52Zm11.86-16.2a.56.56,0,0,0-.47.22L46.76,40.47a.58.58,0,0,0-.09.43.53.53,0,0,0,.23.37.59.59,0,0,0,.43.1.58.58,0,0,0,.37-.24L58.81,27.8a.36.36,0,0,1,.56,0L69.65,41.37a.58.58,0,0,0,.8.14.59.59,0,0,0,.13-.81l-11-14.62A.54.54,0,0,0,59.09,25.86Z"/></svg>