<svg id="_5" data-name="5" xmlns="http://www.w3.org/2000/svg" viewBox="0 0 118.17 118.17"><defs><style>.cls-1{fill:#63b9cf;}</style></defs><path class="cls-1" d="M70.27,16.57a19.78,19.78,0,0,1,3.53,1.49,7.11,7.11,0,0,1,3.11,6.11c0,.74,0,1.49,0,2.36h.9c3.77,0,7.53,0,11.3,0A7.45,7.45,0,0,1,92.38,40.8a1,1,0,0,0-.75,1q-.69,8.73-1.44,17.45L88.6,78.37c-.42,5-.86,10-1.22,15-.19,2.75-1,5.15-3.33,6.81a7.43,7.43,0,0,1-4.36,1.36q-20.22,0-40.44,0a7.39,7.39,0,0,1-7.53-6.85c-.5-5.15-.89-10.31-1.32-15.46Q29.68,70.64,29,62q-.7-8.48-1.4-17c-.09-1.13-.16-2.27-.32-3.39a1.1,1.1,0,0,0-.56-.75,7.47,7.47,0,0,1,3.14-14.36c3.74,0,7.47,0,11.21,0h1.07a31.06,31.06,0,0,1,0-3.35,7.28,7.28,0,0,1,6.24-6.49,1.88,1.88,0,0,0,.3-.12Zm-38,24.94c.45,5.49.89,10.89,1.34,16.29l1.59,19.11c.47,5.62.91,11.25,1.39,16.87.19,2.11,1,2.84,3.18,2.84H79.14c.25,0,.5,0,.75,0a2.47,2.47,0,0,0,2.36-2.16c.07-.47.1-.94.14-1.41q.54-6.45,1.06-12.9l1.44-17.28q.63-7.53,1.25-15c.18-2.09.34-4.17.51-6.3Zm27.19-5H88.62c.33,0,.66,0,1,0a2.47,2.47,0,0,0,2-3.51,2.66,2.66,0,0,0-2.74-1.46H30.07c-.25,0-.5,0-.75,0a2.49,2.49,0,0,0,0,4.95c.33,0,.66,0,1,0Zm12.46-10c0-.78,0-1.5,0-2.21a2.51,2.51,0,0,0-2.73-2.74c-1.88,0-3.76,0-5.64,0H49.78a2.47,2.47,0,0,0-2.72,2.13,26.45,26.45,0,0,0,0,2.82Z"/><path class="cls-1" d="M49.49,88.78c.08,2-1.54,3.38-3.35,2.68a2.38,2.38,0,0,1-1.61-2.21c-.35-5.35-.67-10.7-1-16.06Q42.89,63,42.25,52.83c-.07-1.22-.17-2.43-.21-3.65A2.49,2.49,0,1,1,47,49q.85,13.7,1.69,27.4C49,80.46,49.22,84.54,49.49,88.78Z"/><path class="cls-1" d="M69.46,88.54l1.59-25.33.87-14.16a2.5,2.5,0,1,1,5,.3c-.16,2.95-.36,5.9-.54,8.86q-.46,7.49-.94,15c-.33,5.36-.65,10.71-1,16.06a2.47,2.47,0,0,1-2.59,2.38A2.51,2.51,0,0,1,69.44,89v-.5Z"/><path class="cls-1" d="M57,69q0-9.88,0-19.77a2.48,2.48,0,0,1,3.3-2.58A2.42,2.42,0,0,1,62,48.79a7.63,7.63,0,0,1,0,.83V88.48c0,2-.92,3.15-2.49,3.15S57,90.47,57,88.48Z"/></svg>