<svg id="_5" data-name="5" xmlns="http://www.w3.org/2000/svg" viewBox="0 0 118.17 118.17"><defs><style>.cls-1{fill:#63b9cf;}</style></defs><path class="cls-1" d="M79.25,30.09c-.16-.54-.27-.91-.37-1.28a4,4,0,0,1,2.57-4.94,3.91,3.91,0,0,1,5,2.3c1.43,4,2.8,8.1,4.06,12.2a3.83,3.83,0,0,1-3.66,5c-4,.09-8.1.06-12.14,0A3.83,3.83,0,0,1,71,40.28,3.9,3.9,0,0,1,73.07,36a1.06,1.06,0,0,0,.46-.49c-1.92-.84-3.78-1.84-5.76-2.5A27.47,27.47,0,1,0,86.25,63.09c.21-1.32.21-2.68.3-4a3.93,3.93,0,1,1,7.85.24,28.89,28.89,0,0,1-.24,4c-2.32,15-10.56,25.14-25,29.7-19.64,6.18-40.64-6.54-44.64-26.71A35.25,35.25,0,0,1,52.82,24.39a34.4,34.4,0,0,1,25.35,5Z"/></svg>