<svg id="_5" data-name="5" xmlns="http://www.w3.org/2000/svg" viewBox="0 0 118.17 118.17"><defs><style>.cls-1,.cls-2{fill:#63b9cf;stroke:#63b9cf;stroke-miterlimit:10;}</style></defs><path class="cls-1" d="M67.59,61.64H60.94c0,.3,0,.57,0,.84q0,12.68,0,25.34A1.06,1.06,0,0,0,61.55,89a4.94,4.94,0,0,1,2.54,5.64,5,5,0,0,1-9.72,0A5,5,0,0,1,56.91,89a1,1,0,0,0,.66-1q0-12.93,0-25.84c0-.14,0-.28,0-.48H50.87V84.45c0,1.72-.53,2.24-2.25,2.24s-3.68,0-5.52,0a1.11,1.11,0,0,0-1.21.69,4.92,4.92,0,0,1-6.13,2.35,5,5,0,1,1,6.48-6.4h5.23V61.65H40.84v9.57c0,1.5-.59,2.09-2.07,2.09s-2.73,0-4.1,0a1.05,1.05,0,0,0-1.13.68,4.92,4.92,0,0,1-6.13,2.36,5,5,0,1,1,6.47-6.4h3.56V61.6c-1.74,0-3.46,0-5.17,0a11.7,11.7,0,0,1-3.7-22.72A1,1,0,0,0,29.3,38,11.69,11.69,0,0,1,43.17,28.4,1,1,0,0,0,44.3,28,16.69,16.69,0,0,1,70.77,28l.4.48a12.82,12.82,0,0,1,5.94-1.14A12.09,12.09,0,0,1,88.3,37.18a1.79,1.79,0,0,0,1.41,1.67,11.61,11.61,0,0,1,7.8,13.09A11.74,11.74,0,0,1,86,61.6H82.71v8.3h3.55a5,5,0,1,1,6.38,6.46,4.9,4.9,0,0,1-6-2.32,1.16,1.16,0,0,0-1.26-.75c-1.39,0-2.79,0-4.18,0a1.7,1.7,0,0,1-1.9-1.92c0-2.92,0-5.85,0-8.78v-1H71V83.29H77.9a5,5,0,1,1,6.39,6.45,4.87,4.87,0,0,1-6-2.3A1.25,1.25,0,0,0,77,86.68c-2.43,0-4.85,0-7.28,0-1.49,0-2.08-.58-2.08-2.07v-23Zm-8.37-3.38c8.91,0,17.83,0,26.74,0a8.34,8.34,0,0,0,1.31-16.59c-1.74-.3-2-.66-2.09-2.41A8.79,8.79,0,0,0,72,31.81c-1.54.89-2.15.74-3.13-.8a13.39,13.39,0,0,0-22.5-.1c-.9,1.39-1.31,1.53-2.91,1a8.36,8.36,0,0,0-10.94,7.63c-.05,1.46-.38,1.86-1.78,2.18a8.36,8.36,0,0,0,1.93,16.53Q45.93,58.28,59.22,58.26ZM29.14,70a1.67,1.67,0,1,0,1.66,1.64A1.68,1.68,0,0,0,29.14,70ZM91,73.31a1.67,1.67,0,1,0-1.7-1.68A1.7,1.7,0,0,0,91,73.31ZM37.49,86.69A1.67,1.67,0,1,0,35.83,85,1.7,1.7,0,0,0,37.49,86.69ZM84.31,85a1.67,1.67,0,1,0-1.67,1.71A1.71,1.71,0,0,0,84.31,85ZM60.9,93.36a1.67,1.67,0,1,0-1.69,1.69A1.69,1.69,0,0,0,60.9,93.36Z"/><path class="cls-2" d="M90.89,51.27a5.15,5.15,0,0,1-1.33-1,9.33,9.33,0,0,0-5.12-3.79,1.64,1.64,0,0,1-1.2-2.06,1.66,1.66,0,0,1,2.18-1.12,11.82,11.82,0,0,1,6.87,5.1A1.81,1.81,0,0,1,90.89,51.27Z"/></svg>