<svg id="_5" data-name="5" xmlns="http://www.w3.org/2000/svg" viewBox="0 0 118.17 118.17"><defs><style>.cls-1{fill:#63b9cf;stroke:#63b9cf;stroke-miterlimit:10;stroke-width:0.94px;}</style></defs><path class="cls-1" d="M101.61,40c-.25,1.16-.42,2.34-.74,3.47a19.59,19.59,0,0,1-19,14.3H81v1q0,14.91,0,29.81a10.74,10.74,0,0,1-8.83,10.81,18.24,18.24,0,0,1-3.47.22q-20.5,0-41,0A10.87,10.87,0,0,1,16.57,88.5V83c0-1.24.45-1.69,1.71-1.7h9.39c0-.33,0-.62,0-.91q.16-23.32.32-46.66c0-1.85.38-2.21,2.25-2.21q16.24,0,32.47,0a1.08,1.08,0,0,0,1.2-.8,19.54,19.54,0,0,1,37.49,5,2.76,2.76,0,0,0,.16.54ZM30.8,34.35c-.1,15.66-.21,31.28-.31,47h30c1.11,0,1.55.45,1.57,1.57,0,.69,0,1.38,0,2.08a37.38,37.38,0,0,0,.12,5,8.06,8.06,0,0,0,16-1.27c0-10.18,0-20.37,0-30.55,0-.6-.2-.77-.75-.91a19.13,19.13,0,0,1-11.37-7.8,1.34,1.34,0,0,0-1.28-.65q-6.52,0-13,0a4.61,4.61,0,0,1-.83,0A1.38,1.38,0,0,1,51,46a6,6,0,0,1,.74,0H64.14a20,20,0,0,1-1.3-11.64Zm68,3.89A16.8,16.8,0,1,0,82,55,16.79,16.79,0,0,0,98.84,38.24ZM19.34,84.1c0,1.45,0,2.86,0,4.26A8.07,8.07,0,0,0,27.8,96.8H62.7c0-.1,0-.14,0-.15s-.27-.28-.4-.42a10.15,10.15,0,0,1-2.91-6.1c-.15-1.51-.1-3-.14-4.55,0-.49,0-1,0-1.48Z"/><path class="cls-1" d="M60.33,70.11h8.55a4.54,4.54,0,0,1,.91.06,1.27,1.27,0,0,1,1.08,1.29,1.32,1.32,0,0,1-1.1,1.37,2.59,2.59,0,0,1-.74,0H51.59a3.61,3.61,0,0,1-.66,0,1.31,1.31,0,0,1-1.15-1.33,1.28,1.28,0,0,1,1.09-1.36,3.82,3.82,0,0,1,.83,0Z"/><path class="cls-1" d="M60.31,58.08h8.88c1.08,0,1.7.52,1.68,1.39s-.61,1.33-1.65,1.33q-8.89,0-17.77,0c-1.1,0-1.69-.51-1.67-1.39s.6-1.33,1.73-1.33Z"/><path class="cls-1" d="M46.68,47.45a4.35,4.35,0,0,1-4.35,4.3,4.28,4.28,0,1,1,0-8.56A4.33,4.33,0,0,1,46.68,47.45ZM42.27,49a1.51,1.51,0,1,0,0-3,1.51,1.51,0,1,0,0,3Z"/><path class="cls-1" d="M46.68,59.4a4.34,4.34,0,0,1-4.33,4.32,4.28,4.28,0,1,1-.08-8.55A4.33,4.33,0,0,1,46.68,59.4ZM42.3,60.94a1.51,1.51,0,1,0,0-3,1.51,1.51,0,1,0,0,3Z"/><path class="cls-1" d="M46.69,71.42a4.41,4.41,0,1,1-4.37-4.26A4.35,4.35,0,0,1,46.69,71.42ZM42.3,72.91A1.59,1.59,0,0,0,44,71.41a1.63,1.63,0,0,0-1.67-1.5,1.58,1.58,0,0,0-1.63,1.52A1.56,1.56,0,0,0,42.3,72.91Z"/><path class="cls-1" d="M83.19,28c.48.2.93.34,1.34.55a5.78,5.78,0,0,1,3.25,4.71c.14,1.06-.38,1.82-1.26,1.88s-1.38-.51-1.5-1.6a3,3,0,0,0-3-2.82,3.06,3.06,0,0,0-3.16,2.69,3.12,3.12,0,0,0,3.25,3.46,5.82,5.82,0,0,1,1.72,11.32l-.68.25c0,.47,0,.94,0,1.4a1.31,1.31,0,0,1-1.37,1.35,1.24,1.24,0,0,1-1.31-1.31,1.88,1.88,0,0,0-1.33-2.13,5.28,5.28,0,0,1-3-4.74c-.06-1,.39-1.59,1.2-1.67s1.39.43,1.51,1.47a3.07,3.07,0,0,0,2.69,2.91,3.06,3.06,0,0,0,.9-6c-.66-.1-1.33-.11-2-.27a5.81,5.81,0,0,1-.77-11c.59-.24.82-.52.76-1.14a2.41,2.41,0,0,1,.15-1.13,1.34,1.34,0,0,1,2.54.44C83.22,27,83.19,27.49,83.19,28Z"/></svg>