<svg id="_5" data-name="5" xmlns="http://www.w3.org/2000/svg" viewBox="0 0 118.17 118.17"><defs><style>.cls-1{fill:#63b9cf;fill-rule:evenodd;}</style></defs><path class="cls-1" d="M59.09,94.52a35.54,35.54,0,1,1,25-10.42,35.15,35.15,0,0,1-25,10.42Zm0-18.32a3.16,3.16,0,0,1-2.1-1,2.87,2.87,0,0,1-.88-1.93V62H44.9a3.14,3.14,0,0,1-2-.78,3.28,3.28,0,0,1,0-4.27,3.22,3.22,0,0,1,2-.81H56.11V44.87a2.77,2.77,0,0,1,.88-2,2.92,2.92,0,0,1,4.2,0,2.69,2.69,0,0,1,.88,2V56.14H73.28a3.15,3.15,0,0,1,2,.81,3.44,3.44,0,0,1,1,2.12,3.4,3.4,0,0,1-1,2.15,3.07,3.07,0,0,1-2,.78H62.07V73.31a2.79,2.79,0,0,1-.88,1.93,3,3,0,0,1-2.1,1Zm0-46.68h0A29.45,29.45,0,1,0,80,38.2a29.34,29.34,0,0,0-21-8.68Z"/></svg>