<svg id="_5" data-name="5" xmlns="http://www.w3.org/2000/svg" viewBox="0 0 118.17 118.17"><defs><style>.cls-1{fill:#63b9cf;}</style></defs><path class="cls-1" d="M59.05,94.41A49.43,49.43,0,0,1,35.68,88C23.6,81.51,13.82,72.32,5.45,61.54a3.7,3.7,0,0,1,0-4.88C14.34,45.23,24.74,35.52,37.85,29a47,47,0,0,1,22.57-5.25A50.21,50.21,0,0,1,83,30.4c10,5.45,18.34,12.87,25.78,21.39,1.36,1.56,2.66,3.19,3.93,4.84a3.71,3.71,0,0,1,0,4.88C103.86,72.9,93.49,82.59,80.43,89.09A48.15,48.15,0,0,1,59.05,94.41Zm46-35.07c-.12-.32-.13-.41-.18-.46-7.24-8.64-15.39-16.22-25.31-21.74a44.64,44.64,0,0,0-16.84-5.63c-7.49-.82-14.49.94-21.19,4.13A74.41,74.41,0,0,0,21.56,50c-2.94,2.87-5.69,5.93-8.57,9,.94,1.11,1.71,2,2.52,2.94,7,7.87,14.85,14.77,24.23,19.76,12.46,6.62,25,6.95,37.64.54A78.71,78.71,0,0,0,96.87,67.92C99.72,65.13,102.39,62.15,105.06,59.34Z"/><path class="cls-1" d="M59.07,76.85a19.07,19.07,0,0,1-19-18C39.36,49.27,46.59,40.45,56.39,39a18.41,18.41,0,0,1,2.46-.2A3.76,3.76,0,1,1,59,46.34a11.49,11.49,0,1,0,10,5.73,4.73,4.73,0,0,1-.93-3.42,3.83,3.83,0,0,1,2.86-3A3.77,3.77,0,0,1,75,47.42a18.57,18.57,0,0,1,1.61,17.76A18.9,18.9,0,0,1,59.07,76.85Z"/></svg>