<svg id="_5" data-name="5" xmlns="http://www.w3.org/2000/svg" viewBox="0 0 118.17 118.17"><defs><style>.cls-1{fill:#63b9cf;stroke:#63b9cf;stroke-miterlimit:10;fill-rule:evenodd;}</style></defs><path class="cls-1" d="M69.08,29h-20V24h20Zm30.05,5V89.12A10.1,10.1,0,0,1,89.07,99.23H29A10,10,0,0,1,19,89.16V34A10,10,0,0,1,29,24V29a5.06,5.06,0,0,0-5.07,5V44H94.13V34a5.06,5.06,0,0,0-5.06-5V24A10.07,10.07,0,0,1,99.13,34ZM39.05,81.59H23.92v7.53A5.1,5.1,0,0,0,29,94.22H39.05Zm0-15H23.92v10H39.05Zm0-17.57H23.92V61.6H39.05ZM56.51,81.59H44.05V94.22H56.51Zm0-15H44.05v10H56.51Zm0-17.57H44.05V61.6H56.51ZM74.13,81.59H61.56V94.22H74.13Zm0-15H61.56v10H74.13Zm0-17.57H61.56V61.6H74.13Zm20,32.56H79V94.22H89.07a5.09,5.09,0,0,0,5.06-5.06Zm0-15H79v10H94.13Zm0-17.57H79V61.6H94.13ZM36.5,34h5a2.49,2.49,0,0,0,2.5-2.47v-10A2.5,2.5,0,0,0,41.55,19h-5A2.49,2.49,0,0,0,34,21.51v10A2.48,2.48,0,0,0,36.5,34Zm40.13,0h4.92a2.49,2.49,0,0,0,2.51-2.47v-10A2.5,2.5,0,0,0,81.55,19H76.63a2.51,2.51,0,0,0-2.5,2.56v10A2.5,2.5,0,0,0,76.63,34Z"/></svg>