<svg id="_5" data-name="5" xmlns="http://www.w3.org/2000/svg" viewBox="0 0 118.17 118.17"><defs><style>.cls-1{fill:#6f7277;fill-rule:evenodd;}</style></defs><path class="cls-1" d="M31.38,70A3.47,3.47,0,0,1,27.9,73.5h-22A3.5,3.5,0,0,1,2.4,70V48a3.5,3.5,0,0,1,3.48-3.45h22A3.46,3.46,0,0,1,31.38,48Zm0,41.49a3.52,3.52,0,0,1-3.48,3.7h-22a3.55,3.55,0,0,1-3.48-3.7v-22A3.52,3.52,0,0,1,5.88,86h22a3.48,3.48,0,0,1,3.48,3.49Zm84.4,0a3.6,3.6,0,0,1-3.67,3.7h-22a3.55,3.55,0,0,1-3.47-3.7v-22A3.52,3.52,0,0,1,90.08,86h22a3.57,3.57,0,0,1,3.67,3.49ZM70.13,3H48a3.56,3.56,0,0,0-3.6,3.49v22A3.55,3.55,0,0,0,48,31.94H70.13a3.52,3.52,0,0,0,3.48-3.47v-22A3.53,3.53,0,0,0,70.13,3ZM27.9,3h-22A3.52,3.52,0,0,0,2.4,6.44v22a3.51,3.51,0,0,0,3.48,3.47h22a3.47,3.47,0,0,0,3.48-3.47v-22A3.48,3.48,0,0,0,27.9,3Zm84.21,0h-22a3.52,3.52,0,0,0-3.47,3.49v22a3.51,3.51,0,0,0,3.47,3.47h22a3.56,3.56,0,0,0,3.67-3.47v-22A3.57,3.57,0,0,0,112.11,3Zm-42,41.58H48A3.54,3.54,0,0,0,44.44,48V70A3.54,3.54,0,0,0,48,73.5H70.13A3.51,3.51,0,0,0,73.61,70V48a3.51,3.51,0,0,0-3.48-3.45ZM115.78,70a3.56,3.56,0,0,1-3.67,3.47h-22A3.5,3.5,0,0,1,86.61,70V48a3.5,3.5,0,0,1,3.47-3.45h22A3.55,3.55,0,0,1,115.78,48ZM70.13,86H48a3.56,3.56,0,0,0-3.6,3.49v22a3.58,3.58,0,0,0,3.6,3.7H70.13a3.56,3.56,0,0,0,3.48-3.7v-22A3.53,3.53,0,0,0,70.13,86Z"/></svg>