<svg id="_5" data-name="5" xmlns="http://www.w3.org/2000/svg" viewBox="0 0 118.17 118.17"><defs><style>.cls-1{fill:#6e7378;}</style></defs><path class="cls-1" d="M2.4,8.17c.72-2.09,1.92-3.73,4.19-4.28a8.74,8.74,0,0,1,2-.18H75.66c3.8,0,6.12,2.16,6.15,5.86.06,6,0,12.11,0,18.16,0,.18,0,.36-.07.63h-11V27.1c0-3.06,0-6.13,0-9.19,0-2-1.08-3.12-2.94-3.12h-43c-.16,0-.32,0-.73.07l1.14.64C32.73,19.33,40.19,23.2,47.69,27a6.53,6.53,0,0,1,3.94,6.43c-.06,14.8,0,29.6,0,44.39v1.57c.45,0,.84.06,1.23.06H67.22c2.51,0,3.52-1,3.53-3.59V54.74h11c0,.37.06.69.06,1q0,14.28,0,28.57c0,3.05-1.47,5.23-4,5.91a9.68,9.68,0,0,1-2.41.27c-7.45,0-14.91,0-22.36,0h-1.5V111c0,3.13-2,4.32-4.76,2.87Q26.7,103.48,6.61,93.11C4.53,92,3,90.67,2.4,88.34Z"/><path class="cls-1" d="M95.94,35.18c-2.55-2.63-5-5.18-7.5-7.69a6.24,6.24,0,0,1-2-4.84A5,5,0,0,1,89.5,18a5.51,5.51,0,0,1,5.84.68,10,10,0,0,1,1.23,1.11l16.91,16.91c3.06,3.06,3.07,6.09,0,9.14L96.44,62.94c-2.16,2.15-4.57,2.72-6.82,1.67a5.58,5.58,0,0,1-1.82-8.86c2.29-2.6,4.87-4.93,7.32-7.39.28-.28.54-.57,1-1.08H94.63q-14.56,0-29.12,0c-2.63,0-4.71-.87-5.88-3.32a6,6,0,0,1,5.52-8.78q14.79,0,29.57,0Z"/></svg>