<svg id="_5" data-name="5" xmlns="http://www.w3.org/2000/svg" viewBox="0 0 118.17 118.17"><defs><style>.cls-1{fill:#6e7378;}</style></defs><path class="cls-1" d="M7.41,35.77a5.64,5.64,0,0,0-.31.71A56.69,56.69,0,1,0,115.78,59.09a56.32,56.32,0,0,0-4.71-22.62,5.32,5.32,0,0,0-.3-.69,56.69,56.69,0,0,0-103.36,0ZM72.09,33h-26c3.35-12.82,8.79-20.27,13-20.27s9.65,7.45,13,20.27ZM105.4,59.09a46.07,46.07,0,0,1-2.59,15.28H84.64a126.35,126.35,0,0,0,.91-15.28,126.61,126.61,0,0,0-1-15.68h18.09a46.3,46.3,0,0,1,2.72,15.68Zm-30.23,0a114.49,114.49,0,0,1-1,15.28H44a118,118,0,0,1,.06-31H74.13a114.79,114.79,0,0,1,1,15.68ZM59.09,105.4c-4.26,0-9.76-7.59-13.1-20.65h26.2c-3.34,13.06-8.85,20.65-13.1,20.65ZM12.77,59.09A46.31,46.31,0,0,1,15.5,43.41H33.59a124.7,124.7,0,0,0-1,15.68,126.35,126.35,0,0,0,.91,15.28H15.36a46.07,46.07,0,0,1-2.59-15.28Zm28.5-42.75q-1.07,2-2,4.35A77.76,77.76,0,0,0,35.4,33H20.81A46.59,46.59,0,0,1,41.27,16.34ZM20.55,84.75H35.31a79.79,79.79,0,0,0,3.94,12.74q1,2.31,2,4.35A46.63,46.63,0,0,1,20.55,84.75Zm56.36,17.09c.7-1.36,1.38-2.81,2-4.35a78.79,78.79,0,0,0,3.93-12.74H97.63a46.68,46.68,0,0,1-20.72,17.09ZM97.36,33H82.78a77.57,77.57,0,0,0-3.85-12.35c-.64-1.55-1.32-3-2-4.35A46.57,46.57,0,0,1,97.36,33Zm0,0"/></svg>